<svg xmlns="http://www.w3.org/2000/svg" width="102" height="102" viewBox="0 0 102 102"><defs><clipPath id="a9kia"><path fill="#fff" d="M51 0c28.166 0 51 22.833 51 51 0 28.166-22.834 51-51 51-28.167 0-51-22.834-51-51C0 22.833 22.833 0 51 0z"/></clipPath></defs><g><g><path fill="#f44336" d="M51 0c28.166 0 51 22.833 51 51 0 28.166-22.834 51-51 51-28.167 0-51-22.834-51-51C0 22.833 22.833 0 51 0z"/><path fill="none" stroke="#acacac" stroke-miterlimit="50" stroke-width="2" d="M51 0c28.166 0 51 22.833 51 51 0 28.166-22.834 51-51 51-28.167 0-51-22.834-51-51C0 22.833 22.833 0 51 0z" clip-path="url(&quot;#a9kia&quot;)"/></g></g></svg>