<svg xmlns="http://www.w3.org/2000/svg" width="98" height="139" viewBox="0 0 98 139"><defs><clipPath id="w17aa"><path fill="#fff" d="M49 0c27.062 0 49 21.938 49 49v41c0 27.062-21.938 49-49 49S0 117.062 0 90V49C0 21.938 21.938 0 49 0z"/></clipPath></defs><g><g><path fill="#f7f7f7" d="M49 0c27.062 0 49 21.938 49 49v41c0 27.062-21.938 49-49 49S0 117.062 0 90V49C0 21.938 21.938 0 49 0z"/><path fill="none" stroke="#e8e8e8" stroke-miterlimit="50" stroke-width="2" d="M49 0c27.062 0 49 21.938 49 49v41c0 27.062-21.938 49-49 49S0 117.062 0 90V49C0 21.938 21.938 0 49 0z" clip-path="url(&quot;#w17aa&quot;)"/></g></g></svg>